<?xml version="1.0" standalone="no"?>
<!DOCTYPE svg PUBLIC "-//W3C//DTD SVG 20010904//EN"
 "http://www.w3.org/TR/2001/REC-SVG-20010904/DTD/svg10.dtd">
<svg version="1.0" xmlns="http://www.w3.org/2000/svg"
 width="512.000000pt" height="512.000000pt" viewBox="0 0 512.000000 512.000000"
 preserveAspectRatio="xMidYMid meet">

<g transform="translate(0.000000,512.000000) scale(0.100000,-0.100000)"
fill="#000000" stroke="none">
<path d="M2966 4587 c-31 -31 -34 -75 -8 -107 14 -18 35 -24 105 -33 101 -12
129 -4 145 40 7 22 6 38 -3 61 -15 34 -45 46 -152 58 -57 6 -63 5 -87 -19z"/>
<path d="M2661 4574 c-51 -13 -126 -39 -165 -57 l-71 -33 -60 18 c-320 100
-642 63 -925 -105 -268 -158 -454 -444 -495 -762 l-6 -50 -83 -48 c-254 -148
-437 -403 -492 -687 -20 -100 -19 -276 1 -375 80 -388 371 -691 764 -796 44
-12 81 -27 81 -33 0 -7 16 -45 36 -86 113 -236 308 -395 581 -472 102 -29 330
-31 436 -5 212 53 395 176 522 350 l20 28 67 -84 c75 -95 111 -117 157 -97 33
13 56 58 46 90 -4 12 -30 47 -58 79 -29 32 -68 86 -87 121 -52 92 -87 130
-120 130 -48 0 -58 -9 -102 -94 -62 -118 -192 -246 -308 -304 -131 -65 -226
-85 -379 -80 -103 4 -141 10 -206 32 -178 60 -334 190 -411 341 -23 44 -47 96
-53 116 -19 58 -58 87 -147 109 -532 128 -831 652 -648 1139 75 198 265 400
457 485 29 13 59 31 66 39 7 9 17 61 22 116 25 268 165 497 394 647 150 97
290 142 470 151 141 6 233 -6 358 -47 48 -17 96 -30 105 -30 10 0 49 15 87 33
86 41 179 72 265 88 38 7 75 20 88 32 30 27 29 77 -1 105 -31 29 -85 28 -206
-4z"/>
<path d="M3343 4495 c-29 -21 -39 -69 -19 -99 8 -13 45 -40 83 -61 86 -47 187
-128 246 -197 64 -75 137 -197 137 -229 0 -44 29 -67 115 -92 208 -61 349
-148 496 -305 113 -120 194 -272 236 -438 27 -109 24 -334 -5 -444 -65 -239
-218 -450 -423 -583 -144 -94 -267 -140 -449 -167 -103 -15 -127 -22 -142 -40
-22 -27 -22 -33 -3 -140 27 -152 76 -268 164 -384 49 -65 50 -67 28 -75 -45
-17 -134 -31 -227 -35 -88 -4 -96 -6 -118 -32 -18 -21 -22 -34 -18 -58 12 -57
24 -61 164 -60 141 2 248 26 362 84 109 55 108 90 -3 201 -60 61 -94 106 -124
164 -38 74 -80 201 -70 212 3 2 49 13 103 24 399 81 736 369 873 746 47 127
64 232 64 378 -1 185 -34 329 -113 488 -138 276 -379 485 -683 592 -78 28 -78
28 -109 89 -92 183 -231 327 -417 433 -80 46 -114 52 -148 28z"/>
<path d="M1990 4245 c-8 -2 -32 -6 -53 -10 -21 -3 -47 -15 -58 -26 -27 -27
-25 -82 4 -109 20 -20 28 -21 97 -13 110 12 216 8 309 -12 81 -18 82 -18 109
2 34 25 43 90 15 115 -34 30 -133 50 -273 53 -74 2 -142 2 -150 0z"/>
<path d="M1643 4125 c-50 -31 -66 -68 -47 -113 21 -51 77 -55 145 -9 28 19 35
30 37 64 3 34 -1 44 -24 62 -35 27 -60 26 -111 -4z"/>
<path d="M1403 3905 c-46 -32 -153 -252 -153 -314 0 -33 39 -71 71 -71 50 0
66 16 98 102 18 45 47 107 66 139 20 32 35 70 35 87 0 59 -67 92 -117 57z"/>
<path d="M1900 3187 c-87 -24 -149 -76 -191 -158 l-19 -39 27 0 c22 0 34 9 53
40 45 73 116 110 213 110 81 0 156 -41 195 -105 21 -35 33 -44 54 -45 26 0 26
2 17 30 -17 47 -85 117 -142 144 -64 31 -146 40 -207 23z"/>
<path d="M3115 3187 c-88 -29 -151 -79 -186 -149 -24 -47 -24 -48 4 -48 16 0
33 14 55 44 17 25 50 58 73 73 38 25 51 28 129 28 78 0 91 -3 129 -28 23 -15
56 -48 73 -73 22 -30 39 -44 55 -44 28 0 28 1 3 49 -58 116 -219 186 -335 148z"/>
<path d="M2065 2608 c4 -24 15 -66 25 -94 18 -52 79 -154 92 -154 4 0 28 14
53 31 101 68 259 100 403 82 93 -12 232 -59 276 -94 15 -12 32 -19 39 -16 23
9 85 129 102 198 10 39 16 72 13 74 -2 2 -230 7 -507 10 l-503 6 7 -43z"/>
<path d="M3120 1280 c-23 -23 -27 -77 -7 -103 14 -19 138 -77 165 -77 33 0 72
38 72 71 0 48 -17 67 -87 99 -77 35 -115 38 -143 10z"/>
</g>
</svg>
